<svg xmlns="http://www.w3.org/2000/svg" viewBox="0 0 448 512"><!-- Font Awesome Pro 6.0.0-alpha2 by @fontawesome - https://fontawesome.com License - https://fontawesome.com/license (Commercial License) --><path d="M384 32H64C28.654 32 0 60.652 0 96V416C0 451.346 28.654 480 64 480H384C419.346 480 448 451.346 448 416V96C448 60.652 419.346 32 384 32ZM160 368C160 376.875 152.875 384 144 384H112C103.125 384 96 376.875 96 368V240C96 231.125 103.125 224 112 224H144C152.875 224 160 231.125 160 240V368ZM256 368C256 376.875 248.875 384 240 384H208C199.125 384 192 376.875 192 368V144C192 135.125 199.125 128 208 128H240C248.875 128 256 135.125 256 144V368ZM352 368C352 376.875 344.875 384 336 384H304C295.125 384 288 376.875 288 368V304C288 295.125 295.125 288 304 288H336C344.875 288 352 295.125 352 304V368Z"/></svg>