<svg xmlns="http://www.w3.org/2000/svg" viewBox="0 0 448 512"><!-- Font Awesome Pro 6.0.0-alpha2 by @fontawesome - https://fontawesome.com License - https://fontawesome.com/license (Commercial License) --><path d="M300.001 256V352C300.001 358.625 294.61 364 288.001 364S276.001 358.625 276.001 352V256C276.001 249.375 281.391 244 288.001 244S300.001 249.375 300.001 256ZM432.001 304C432.001 419.997 337.133 513.76 220.73 511.976C106.769 510.23 12.641 411.509 16.092 297.587C19.155 196.476 94.366 113.481 191.997 98.5V64H176.013C158.414 64 144.014 49.6 144.014 32.001V31.999C144.014 14.4 158.414 0 176.013 0H272.017C289.617 0 304.016 14.4 304.016 31.999V32.001C304.016 49.6 289.617 64 272.017 64H255.999V98.5C293.499 104.297 327.686 120.094 355.686 143.094L380.377 118.405C386.625 112.157 396.755 112.158 403.002 118.406L425.688 141.096C431.936 147.345 431.934 157.476 425.684 163.723L399.094 190.297L398.501 190.906C419.688 223.297 432.001 262.203 432.001 304ZM164.297 364C165.688 349.812 172.016 336.281 182.157 326.125C201.407 306.875 212.001 281.281 212.001 252C212.001 225.531 190.469 204 164.001 204S116.001 225.531 116.001 252C116.001 263.031 124.954 272 136.001 272S156.001 263.031 156.001 252C156.001 243.188 172.001 241.125 172.001 254.062C172.001 270.344 165.391 286.312 153.844 297.875C134.594 317.125 124.001 342.719 124.001 369.938V384C124.001 395.031 132.954 404 144.001 404H192.001C203.047 404 212.001 395.031 212.001 384S203.047 364 192.001 364H164.297ZM340.001 256C340.001 227.312 316.672 204 288.001 204S236.001 227.312 236.001 256V352C236.001 380.688 259.329 404 288.001 404S340.001 380.688 340.001 352V256Z"/></svg>