<svg xmlns="http://www.w3.org/2000/svg" viewBox="0 0 640 512"><!-- Font Awesome Pro 6.0.0-alpha2 by @fontawesome - https://fontawesome.com License - https://fontawesome.com/license (Commercial License) --><path d="M640 287.928V287.928C640 298.972 631.047 307.925 620.003 307.925H559.99C550.678 307.925 542.598 301.5 540.5 292.429L535.875 272.434L499.5 432.394C497.25 442.267 489 448.391 479.125 447.891C469.5 447.516 461.625 440.268 460.25 430.645L433.75 241.441L403.875 494.254C402.75 504.252 394.25 511.875 384.125 512C374.125 512 365.5 504.627 364.25 494.629L320 170.333L275.75 494.629C274.375 504.627 265.875 512 255.75 511.875C245.75 511.875 237.25 504.252 236.125 494.254L206.25 241.441L179.75 430.77C178.375 440.268 170.5 447.391 161 447.891H160.75C150.25 447.891 142.75 442.142 140.5 432.394L104.125 272.434L99.502 292.419C97.403 301.496 89.317 307.925 80 307.925H19.994C8.951 307.925 0 298.973 0 287.931V287.931C0 276.887 8.953 267.935 19.997 267.935H64.125L84.5 175.457C86.625 166.459 94.75 159.961 104 159.961S121.375 166.334 123.5 175.457L155.25 315.673L188.25 81.23C189.625 71.233 198.25 63.859 208.25 63.984C218.25 64.109 226.75 71.608 227.875 81.605L257.375 331.544L300.25 17.246C301.625 7.373 310 0 320 0C330 0 338.375 7.373 339.75 17.246L382.625 331.544L412.125 81.605C413.25 71.608 421.75 64.109 431.75 63.984C441.75 63.859 450.375 71.233 451.75 81.105L484.75 315.673L516.5 175.457C518.625 166.334 526.75 159.961 536 159.961C545.25 160.086 553.375 166.459 555.5 175.457L575.875 267.935H620.006C631.049 267.935 640 276.886 640 287.928Z"/></svg>