<?xml version="1.0" encoding="utf-8"?>
<!-- Generator: Adobe Illustrator 15.0.0, SVG Export Plug-In . SVG Version: 6.00 Build 0)  -->
<!DOCTYPE svg PUBLIC "-//W3C//DTD SVG 1.1//EN" "http://www.w3.org/Graphics/SVG/1.1/DTD/svg11.dtd">
<svg version="1.1" id="Layer_1" xmlns="http://www.w3.org/2000/svg" xmlns:xlink="http://www.w3.org/1999/xlink" x="0px" y="0px"
	 width="290.547px" height="141.73px" viewBox="0 0 290.547 141.73" enable-background="new 0 0 290.547 141.73"
	 xml:space="preserve">
<g>
	<g>
		<path fill="#0065BD" d="M290.547,141.73h-141.73V0h141.73V141.73z M150.181,140.368h139.003V1.364H150.181V140.368z"/>
		<path fill="#0065BD" d="M141.73,141.73H0V0h141.73V141.73z M1.364,140.368h139.004V1.364H1.364V140.368z"/>
	</g>
	<g>
		<path fill="#0065BD" d="M23.126,62.355c1.08,0.59,2.354,0.982,3.826,1.276l1.275,5.886l-5.886,25.31l-2.649,1.864l-7.356,31.588
			l-5.985,4.61L23.126,62.355z M28.031,62.454c-5.493-0.099-9.908-4.415-9.908-9.81c0-5.788,4.514-9.908,10.203-9.908
			c2.649,0,5.003,1.176,6.573,3.139c-2.256-0.294-4.414,1.276-5.101,3.042c-0.589-0.196-1.08-0.196-1.472-0.196
			c-2.256,0-4.021,1.766-4.021,3.924s1.766,4.022,4.021,4.022c2.257,0,3.63-1.767,3.63-4.022c0-0.099,0-0.294,0-0.393
			c0.099-0.098,0.294-0.098,0.589-0.098c0.392,0,0.784,0.197,0.784,0.883c0,0.785-0.295,2.256-0.295,3.728
			c0,1.373,0.295,2.354,0.688,3.335l3.335,13.93c-0.491,0.393-0.981,0.882-1.374,1.473c-1.864,0.392-3.434,1.569-4.12,3.237
			L28.031,62.454z M48.534,71.675c-2.845,0-4.611,0.196-6.573,0.196c-3.042,0-5.297-1.276-5.983-3.728
			c1.177,0,2.06-0.981,2.06-2.158c0-2.354-3.629-4.709-3.629-9.221c0-1.472,0.195-2.844,0.195-3.924c0-1.178-0.98-1.962-2.059-1.962
			c-0.883,0-1.668,0.392-2.06,0.784c-0.197-2.747,2.06-4.806,4.904-4.61c0.393-0.883,1.864-1.962,3.531-1.962
			c1.178,0,1.767,0.295,2.354,0.687c0.491-0.196,1.08-0.294,1.864-0.294c2.257,0,4.709,1.864,4.709,4.708
			c0,2.649-1.569,3.924-3.139,5.003c-0.785,0.588-0.981,1.177-0.883,2.059c0.098,1.08,0.687,2.945,0.98,3.924
			c0.294,0.884,0.982,1.276,2.06,1.177c5.395-0.392,13.146-0.98,17.855-1.177c4.413-0.195,7.553-0.294,11.184-0.49
			c-6.868,1.667-10.792,6.279-11.872,12.853l-3.139,1.666C60.208,72.558,56.676,71.675,48.534,71.675z M44.119,98.26
			c1.178-0.293,1.766-1.177,1.766-1.961c0-1.177-0.688-1.963-1.569-2.551c-1.472-0.883-3.042-1.667-4.415-2.846
			c-1.472-1.274-2.354-2.354-3.237-3.531c-0.686-0.784-1.276-1.08-2.159-1.08c-1.079,0-1.864,0.785-1.864,1.669
			c0,0.491,0.099,0.882,0.295,1.177c-1.472-0.49-2.354-2.061-2.354-3.729c0-1.568,0.981-2.747,1.962-3.334
			c-0.098-0.295-0.197-0.687-0.197-1.178c0-2.06,1.668-4.022,4.316-4.218c0.491-1.374,1.961-2.452,3.924-2.452
			c2.354,0,4.807,1.766,4.807,4.905c0,1.568-0.392,1.961-0.392,3.139c0,0.687,0.195,1.273,1.177,2.256
			c1.178,1.178,1.765,1.865,2.453,1.865c0.687,0,1.08-0.297,1.864-0.886c4.414-3.727,8.24-7.65,13.537-10.495
			c0.099,4.61,1.865,8.339,5.69,11.182l-3.336,2.552c-0.587-0.589-1.177-0.784-1.962-0.784c-1.274,0-2.549,0.491-4.512,1.766
			c-2.257,1.473-5.984,5.298-8.632,7.848c-1.472,1.471-3.042,2.258-4.514,2.258C45.59,99.831,44.611,99.34,44.119,98.26z
			 M35.781,80.21c-1.275,0-2.157,0.687-2.354,1.472c0.393-0.098,0.883-0.195,1.472-0.195c1.473,0,2.747,0.687,3.335,1.863
			C38.527,81.486,37.449,80.21,35.781,80.21z M45.003,128.278L37.645,96.69l-2.649-1.864l-1.275-6.082
			c-0.197-0.784,0.196-1.178,0.784-1.178c0.393,0,0.688,0.198,1.08,0.589c1.275,1.473,2.06,2.354,3.434,3.532
			c0.785,0.688,1.766,1.275,2.747,1.765l6.082,26.39c-0.981,0.882-1.667,2.256-1.667,3.727c0,1.081,0.294,2.061,0.785,2.944
			c-0.197,0.49-0.295,0.981-0.295,1.57c0,0.587,0.098,1.177,0.393,1.765L45.003,128.278z M40.195,49.799
			c0-1.667-1.374-2.747-2.648-2.747c-0.589,0-0.981,0.196-1.275,0.294c1.668,0.687,2.846,2.158,2.747,4.905
			C39.901,51.663,40.195,50.682,40.195,49.799z M41.765,78.739c0-1.276-1.079-2.452-2.453-2.452c-0.785,0-1.274,0.293-1.569,0.489
			c1.864,0.393,3.335,1.963,3.434,3.924C41.471,80.21,41.765,79.719,41.765,78.739z M44.904,49.21c0-1.472-1.276-2.551-2.747-2.551
			c0.588,0.491,1.177,1.668,1.177,2.944c0,0.587-0.099,1.372-0.491,2.255C44.021,51.467,44.904,50.583,44.904,49.21z
			 M48.043,128.083c0-0.687,0.098-1.08,0.393-1.768c-0.492-0.587-0.884-1.568-0.884-2.747c0-1.176,0.589-2.452,1.864-3.236
			c-0.392-2.942,1.962-4.905,4.611-4.905c2.942,0,4.414,2.061,4.904,4.121c0.393,1.471,0.981,1.963,1.668,2.059
			c1.276,0.198,3.335,0,4.121-0.193c0.882-0.198,1.274-0.689,1.274-2.16c0.099-10.3-1.177-16.873-1.177-20.6
			c0-4.022,2.256-5.788,4.611-6.572c3.141-1.08,9.32-1.963,12.36-1.865c1.373,0,2.062,0.883,2.649,1.768
			c1.08,1.666,1.962,3.432,3.04,5.688c-0.784,0.394-1.176,1.08-1.176,2.06c0,1.374,0.785,2.552,1.865,3.142l-11.479,0.293
			c-0.098,0.687-0.098,1.373-0.098,1.961c0,1.275,0.882,2.159,2.061,2.159c0.884,0,1.668-0.295,2.353-0.884
			c0.395,4.022-2.06,5.299-4.609,5.396c0.098,3.629,0.294,6.276,0.294,12.852c0,4.708-2.354,7.553-5.69,7.553
			c0.196-0.196,0.295-0.49,0.295-0.785c0-1.862-2.061-2.747-3.532-2.747c-2.943,0-4.513,2.355-7.75,2.355
			c-2.844,0-4.021-2.355-6.18-2.355c-1.373,0-2.354,0.885-2.354,2.061c0,0.588,0.197,1.079,0.589,1.571
			C50.202,132.302,48.043,130.534,48.043,128.083z M51.869,122.784c-1.863,0-2.844,1.472-2.648,2.649
			c0.393-0.489,1.178-1.178,2.747-1.178c1.276,0,2.256,0.589,2.845,1.275C54.812,124.158,53.831,122.784,51.869,122.784z
			 M52.752,118.271c-1.57,0-2.354,0.884-2.454,1.668c0.393-0.196,0.982-0.392,1.865-0.392c1.569,0,2.844,0.882,3.237,1.766
			C55.598,119.743,54.615,118.271,52.752,118.271z M65.505,75.108c0-6.475,4.905-12.262,12.459-14.028
			c2.845-0.687,5.296-1.08,8.632-1.962c6.279-1.668,8.242-4.415,8.242-8.044c0-0.981-0.198-1.766-0.688-2.55
			c0.098,0.588,0.098,1.08,0.098,1.667c0,3.924-3.629,7.456-8.928,7.946c-2.845,0.196-5.885,0.588-8.828,0.884
			c-0.688,0.098-0.98-0.197-0.98-0.785l-0.1-4.708c0-0.197,0.1-0.393,0.393-0.393c0.199,0,0.295,0.098,0.393,0.294
			c0.591,0.884,1.767,1.766,3.434,1.766c1.373,0,2.158-0.785,2.158-1.667c0-0.982-0.883-1.865-2.647-1.865
			c-3.827,0-5.787,2.649-10.008,2.649c-4.609,0-6.18-2.257-6.18-4.415c0-1.766,0.981-2.845,2.256-3.433
			c-0.392,0.49-0.489,0.883-0.489,1.57c0,1.471,1.765,2.648,4.904,2.648c2.944,0,4.807-0.686,7.063-0.686
			c2.942,0,4.71,0.98,5.494,2.059c-0.098-2.256-1.766-4.218-3.924-4.218c-1.471,0-2.062,0.884-2.255,1.276
			c-0.1,0.294-0.297,0.393-0.492,0.393c-0.197,0-0.394-0.098-0.394-0.294l-0.49-4.905c-0.098-0.588,0.197-0.883,0.981-0.98
			l5.003-0.393c0.884,2.452,1.473,3.826,2.747,3.826c0.686,0,0.981-0.785,0.981-1.471c1.079-0.295,2.157-0.295,3.236-0.197
			c-1.274-0.882-5.492-0.393-6.769-2.157c2.061-0.099,3.63-0.197,5.296-0.197c1.67,0,3.141,0,4.515,0.197
			c1.569,0.195,3.139,1.079,3.139,2.747c0,1.079-0.589,1.863-1.667,1.863c-0.394,0-0.688-0.098-1.08-0.392
			c0.098,0.784,0.882,1.276,1.667,1.276c1.275,0,2.16-0.785,2.16-2.453c0-0.883-0.198-1.863-0.885-2.648
			c2.061,1.667,3.336,4.609,3.336,8.043c0,5.984-2.157,9.124-8.828,11.478c-3.434,1.177-6.181,1.962-9.614,3.237
			c-5.59,2.06-8.927,5.886-8.927,11.282c0,3.728,1.864,7.945,5.788,9.908C69.723,86.489,65.505,81.093,65.505,75.108z
			 M71.391,77.658c0-5.296,2.943-8.436,8.633-10.594c3.138-1.177,6.181-2.06,9.025-2.942c6.964-2.453,9.418-6.083,9.418-12.557
			c0-2.747-0.785-5.396-2.061-6.965c2.158,1.864,3.923,4.708,3.923,9.613c0,5.101-1.472,10.301-8.535,12.949
			c-3.334,1.276-5.199,1.962-8.73,3.433c-5.492,2.356-7.26,5.495-7.26,9.712c0,4.023,2.159,6.279,3.826,7.652
			C75.609,87.273,71.391,83.152,71.391,77.658z M77.277,80.405c0-3.923,1.864-6.572,6.67-8.828c3.043-1.375,5.298-1.864,8.83-3.335
			c6.963-2.747,8.73-7.946,8.73-13.93c0-2.061-0.295-4.513-1.373-6.573c1.471,1.766,3.236,4.513,3.236,9.908
			c0,5.592-1.863,10.791-8.044,13.832c-2.942,1.374-4.905,2.159-8.239,3.728c-3.828,1.963-5.984,4.71-5.984,7.946
			c0,2.552,1.177,4.515,2.256,5.592C79.631,87.667,77.277,84.136,77.277,80.405z M86.205,41.657c-1.962,0-3.925,0.099-5.985,0.294
			l-2.647-5.199h4.513c0,1.177,0.882,2.06,1.96,2.06c1.08,0,1.962-0.883,1.962-2.06h4.023c0,1.274,0.784,2.06,1.962,2.06
			c1.079,0,1.961-1.079,1.961-2.06h4.515l-3.043,5.396C92.973,41.854,89.835,41.657,86.205,41.657z M82.575,83.25
			c0-2.747,1.863-5.001,5.199-6.768c2.354-1.178,4.316-1.963,8.239-3.925c6.181-3.041,8.534-8.043,8.534-14.812
			c0-1.766-0.293-3.238-0.588-5.003c1.079,2.158,1.962,4.708,1.962,7.945c0,6.475-2.256,12.755-8.73,16.089
			c-2.747,1.373-4.316,2.258-6.377,3.237c-3.138,1.374-4.609,3.53-4.609,6.081c0,1.963,0.489,3.042,0.98,3.926
			C84.341,89.236,82.575,86.685,82.575,83.25z M87.577,99.928c0-0.981,0.295-1.57,1.473-1.766c-1.373-3.04-2.454-5.003-3.238-6.278
			c-0.293-0.492,0-0.785,0.394-0.785c0.587,0,1.078,0.195,1.472,0.785c0.685,0.884,1.568,2.255,2.256,3.531
			c1.275,2.256,2.06,4.416,2.158,7.555h-0.982C89.05,102.97,87.577,101.498,87.577,99.928z M94.542,128.083
			c0-0.687,0.098-1.08,0.394-1.768c-0.491-0.587-0.883-1.568-0.883-2.747c0-1.176,0.587-2.452,1.863-3.236
			c-0.392-2.942,1.963-4.905,4.61-4.905c2.944,0,4.415,2.061,4.906,4.121c0.392,1.471,0.979,1.963,1.667,2.059
			c1.274,0.198,3.334,0,4.119-0.193c0.884-0.198,1.275-0.689,1.275-2.16c0-2.452-0.687-5.688-1.275-8.436
			c-1.47,0.196-5.101,0.392-7.848,0.392c-6.082,0-9.516-2.745-10.103-8.73c-0.197-2.453-0.688-4.808-2.16-7.455
			c-1.078-2.061-3.531-4.808-3.531-8.339c0-2.649,0.981-4.219,4.021-5.689c2.159-0.981,4.71-2.158,6.869-3.435
			c-0.099,3.435,1.96,8.046,4.609,10.006c2.943,2.159,5.69,2.748,9.712,2.748c4.61,0,9.025-1.375,11.378-4.122
			c-1.373,0.884-3.236,1.374-5.592,1.374c-7.257,0-11.868-5.592-11.868-11.574c0-4.317,2.354-8.144,6.278-11.38
			c3.236-2.649,6.182-4.316,8.437-6.573c1.47-1.472,2.745-3.237,2.745-5.297c0-2.453-1.666-4.808-3.432-5.494
			c0.98-1.177,2.94-2.256,4.708-2.256c2.942,0,5.689,2.158,5.689,5.003c0,2.158-1.275,3.825-2.942,4.61
			c0.098,1.668-0.982,3.825-2.256,5.199c-2.452,2.648-6.966,5.494-9.909,7.848c-2.942,2.354-4.511,4.807-4.511,8.143
			c0,4.414,3.529,7.651,8.043,7.651c4.218,0,7.849-3.237,7.849-7.749c0-4.121-2.943-7.163-7.455-9.222l3.725-2.649
			c4.023,2.354,8.439,5.591,8.439,12.558c0,9.612-7.75,18.051-20.308,18.051c-3.924,0-5.003-0.492-7.455-1.473
			c1.569,1.473,3.236,3.63,3.334,6.277c1.963,0.591,3.337,0.885,7.555,0.885c1.865,0,4.414-0.294,6.475-0.885
			c1.472-0.392,2.354-0.98,2.846-1.667c0.49,0.784,0.784,1.667,0.784,2.452c0,2.257-1.67,4.022-3.434,4.415
			c0.687,6.964,1.275,13.929,1.275,20.209c0,4.708-2.354,7.553-5.69,7.553c0.196-0.196,0.294-0.49,0.294-0.785
			c0-1.862-2.059-2.747-3.531-2.747c-2.941,0-4.511,2.355-7.749,2.355c-2.845,0-4.023-2.355-6.181-2.355
			c-1.374,0-2.354,0.885-2.354,2.061c0,0.588,0.195,1.079,0.589,1.571C96.7,132.302,94.542,130.534,94.542,128.083z M98.369,122.784
			c-1.864,0-2.845,1.472-2.648,2.649c0.391-0.489,1.175-1.178,2.747-1.178c1.272,0,2.256,0.589,2.843,1.275
			C101.311,124.158,100.33,122.784,98.369,122.784z M99.252,118.271c-1.569,0-2.356,0.884-2.452,1.668
			c0.392-0.196,0.979-0.392,1.863-0.392c1.569,0,2.845,0.882,3.238,1.766C102.095,119.743,101.116,118.271,99.252,118.271z
			 M111.515,54.409c-1.473-0.784-2.747-2.452-2.747-4.414c0-2.845,2.451-5.003,5.394-5.003c2.259,0,3.827,1.08,4.808,2.256
			c-1.862,0.98-3.334,3.334-3.334,5.494c0,2.845,1.472,4.61,2.843,6.082l-3.628,2.649C112.789,59.608,111.515,57.156,111.515,54.409
			z"/>
	</g>
	<g>
		<path fill="#0065BD" d="M159.633,96.186c0-2.763,2.179-4.445,4.738-4.445c1.019,0,1.656,0.178,2.163,0.407V94.3
			c-0.481-0.241-1.03-0.419-1.819-0.419c-1.158,0-2.356,0.738-2.356,2.305c0,1.565,1.312,2.254,2.218,2.254
			c0.903,0,1.477-0.229,1.972-0.497v2.177c-0.521,0.268-1.387,0.535-2.418,0.535C161.582,100.654,159.633,98.948,159.633,96.186z"/>
		<path fill="#0065BD" d="M167.78,98.604l3.616-4.724h-3.54v-2.025h6.659v1.82l-3.681,4.813h3.745v2.024h-6.8V98.604z"/>
		<path fill="#0065BD" d="M176.473,91.855h5.971v1.974h-3.477v1.389h3.363v1.923h-3.363v1.4h3.477v1.973h-5.971V91.855z"/>
	</g>
	<g>
		<path fill="#0065BD" d="M184.234,96.186c0-2.763,2.177-4.445,4.736-4.445c1.02,0,1.658,0.178,2.166,0.407V94.3
			c-0.484-0.241-1.031-0.419-1.821-0.419c-1.158,0-2.355,0.738-2.355,2.305c0,1.565,1.311,2.254,2.215,2.254
			c0.905,0,1.478-0.229,1.975-0.497v2.177c-0.521,0.268-1.389,0.535-2.42,0.535C186.183,100.654,184.234,98.948,184.234,96.186z"/>
	</g>
	<g>
		<path fill="#0065BD" d="M195.526,91.855v3.311h2.559v-3.311h2.497v8.658h-2.497v-3.387h-2.559v3.387h-2.497v-8.658H195.526z"/>
		<path fill="#0065BD" d="M207.195,93.881h-2.165v-2.025h6.813v2.025h-2.151v6.633h-2.497V93.881z"/>
		<path fill="#0065BD" d="M213.457,91.855h5.971v1.974h-3.475v1.389h3.361v1.923h-3.361v1.4h3.475v1.973h-5.971V91.855z"/>
	</g>
	<g>
		<path fill="#0065BD" d="M221.22,96.186c0-2.763,2.178-4.445,4.737-4.445c1.018,0,1.655,0.178,2.165,0.407V94.3
			c-0.484-0.241-1.032-0.419-1.821-0.419c-1.157,0-2.354,0.738-2.354,2.305c0,1.565,1.311,2.254,2.215,2.254
			c0.903,0,1.477-0.229,1.974-0.497v2.177c-0.522,0.268-1.39,0.535-2.421,0.535C223.167,100.654,221.22,98.948,221.22,96.186z"/>
	</g>
	<g>
		<path fill="#0065BD" d="M232.51,91.855v3.311h2.559v-3.311h2.498v8.658h-2.498v-3.387h-2.559v3.387h-2.494v-8.658H232.51z"/>
		<path fill="#0065BD" d="M240.107,91.855h3.07l2.596,5.17h0.038v-5.17h2.496v8.658h-3.043l-2.623-5.194h-0.04v5.194h-2.494V91.855z
			"/>
		<path fill="#0065BD" d="M250.849,91.855h2.495v8.658h-2.495V91.855z"/>
	</g>
	<g>
		<path fill="#0065BD" d="M255.379,96.186c0-2.763,2.178-4.445,4.736-4.445c1.02,0,1.656,0.178,2.167,0.407V94.3
			c-0.485-0.241-1.033-0.419-1.822-0.419c-1.158,0-2.355,0.738-2.355,2.305c0,1.565,1.311,2.254,2.215,2.254
			c0.905,0,1.478-0.229,1.975-0.497v2.177c-0.522,0.268-1.387,0.535-2.418,0.535C257.328,100.654,255.379,98.948,255.379,96.186z"/>
	</g>
	<g>
		<path fill="#0065BD" d="M269.165,98.719h-2.762l-0.473,1.795h-2.56l2.585-8.658h3.655l2.598,8.658h-2.559L269.165,98.719z
			 M268.693,96.949l-0.852-3.197h-0.114l-0.854,3.197H268.693z"/>
		<path fill="#0065BD" d="M273.529,91.855h2.496v6.61h3.094v2.048h-5.59V91.855z"/>
	</g>
	<g>
		<path fill="#0065BD" d="M160.08,112.77v-5.464h2.496v5.236c0,0.978,0.534,1.412,1.234,1.412s1.234-0.435,1.234-1.412v-5.236h2.497
			v5.464c0,2.419-1.694,3.399-3.731,3.399S160.08,115.188,160.08,112.77z"/>
		<path fill="#0065BD" d="M170.007,107.306h3.07l2.597,5.171h0.037v-5.171h2.497v8.659h-3.043l-2.624-5.194h-0.039v5.194h-2.495
			V107.306z"/>
		<path fill="#0065BD" d="M180.749,107.306h2.495v8.659h-2.495V107.306z"/>
		<path fill="#0065BD" d="M184.578,107.306h2.803l1.477,6.481h0.052l1.477-6.481h2.8l-2.597,8.659h-3.412L184.578,107.306z"/>
		<path fill="#0065BD" d="M194.774,107.306h5.969v1.975h-3.474v1.389h3.361v1.921h-3.361v1.4h3.474v1.975h-5.969V107.306z"/>
		<path fill="#0065BD" d="M203.02,107.306h3.974c2.025,0,3.26,1.299,3.26,2.853c0,1.478-1.081,2.127-1.847,2.472l-0.012,0.05
			c0.113,0.077,0.316,0.331,0.482,0.61l1.592,2.675h-2.813l-1.504-3.042h-0.635v3.042h-2.497V107.306z M206.522,111.305
			c0.675,0,1.067-0.534,1.067-1.082s-0.393-1.07-1.067-1.07h-1.006v2.152H206.522z"/>
		<path fill="#0065BD" d="M211.953,115.508v-2.268c0.562,0.395,1.72,0.892,2.867,0.892c0.839,0,1.297-0.243,1.297-0.675
			c0-0.345-0.316-0.497-0.789-0.61c-0.561-0.142-0.903-0.217-1.554-0.384c-1.171-0.292-1.923-1.133-1.923-2.469
			c0-1.76,1.593-2.893,3.746-2.893c1.017,0,1.935,0.204,2.494,0.446v2.152c-0.433-0.242-1.312-0.573-2.368-0.573
			c-0.968,0-1.4,0.243-1.4,0.624c0,0.331,0.255,0.497,0.842,0.624c0.433,0.088,0.75,0.142,1.322,0.28
			c1.414,0.345,2.141,1.172,2.141,2.585c0,1.439-1.311,2.929-3.681,2.929C213.648,116.169,212.653,115.901,211.953,115.508z"/>
		<path fill="#0065BD" d="M220.621,107.306h2.497v8.659h-2.497V107.306z"/>
	</g>
	<g>
		<path fill="#0065BD" d="M226.947,109.33h-2.164v-2.024h6.812v2.024h-2.151v6.635h-2.497V109.33z"/>
	</g>
	<g>
		<path fill="#0065BD" d="M234.942,112.793l-2.932-5.487h2.83l1.361,3.096h0.051l1.415-3.096h2.763l-2.994,5.487v3.172h-2.494
			V112.793z"/>
	</g>
	<g>
		<path fill="#0065BD" d="M160.144,122.757h2.497v8.66h-2.497V122.757z"/>
		<path fill="#0065BD" d="M165.183,122.757h3.07l2.598,5.17h0.038v-5.17h2.496v8.66h-3.045l-2.621-5.197h-0.04v5.197h-2.496V122.757
			z"/>
	</g>
	<g>
		<path fill="#0065BD" d="M179.119,122.757h3.771c2.023,0,3.285,1.39,3.285,2.979c0,1.593-1.262,2.879-3.285,2.879h-1.275v2.802
			h-2.495V122.757z M182.597,126.756c0.547,0,1.042-0.446,1.042-1.069c0-0.61-0.495-1.071-1.042-1.071h-0.982v2.141H182.597z"/>
		<path fill="#0065BD" d="M188.003,122.757h3.973c2.026,0,3.26,1.3,3.26,2.853c0,1.478-1.081,2.127-1.846,2.472l-0.014,0.049
			c0.115,0.076,0.318,0.332,0.484,0.612l1.591,2.675h-2.813l-1.503-3.045h-0.636v3.045h-2.496V122.757z M191.505,126.756
			c0.675,0,1.07-0.536,1.07-1.083s-0.396-1.069-1.07-1.069h-1.006v2.152H191.505z"/>
		<path fill="#0065BD" d="M201.75,129.621h-2.763l-0.473,1.796h-2.559l2.585-8.66h3.654l2.6,8.66h-2.56L201.75,129.621z
			 M201.278,127.85l-0.851-3.194h-0.116l-0.854,3.194H201.278z"/>
		<path fill="#0065BD" d="M205.731,127.087c0-2.827,1.975-4.647,4.915-4.647c1.146,0,1.988,0.317,2.497,0.546v2.037
			c-0.473-0.252-1.236-0.56-2.127-0.56c-1.619,0-2.56,0.867-2.56,2.624c0,1.63,1.07,2.368,2.037,2.368
			c0.191,0,0.382-0.026,0.56-0.063v-2.344h2.432v3.833c-0.522,0.268-1.591,0.739-3.133,0.739
			C207.935,131.62,205.731,129.912,205.731,127.087z"/>
	</g>
	<g>
		<path fill="#0065BD" d="M215.608,128.22v-5.463h2.495v5.234c0,0.979,0.536,1.412,1.234,1.412c0.702,0,1.237-0.433,1.237-1.412
			v-5.234h2.494v5.463c0,2.42-1.692,3.4-3.731,3.4C217.301,131.62,215.608,130.64,215.608,128.22z"/>
	</g>
	<g>
		<path fill="#0065BD" d="M225.547,122.757h5.973v1.975h-3.477v1.387h3.361v1.923h-3.361v1.402h3.477v1.974h-5.973V122.757z"/>
	</g>
	<g>
		<path fill="#0065BD" d="M195.02,20.477v22.36h9.253v-22.36h7.979v-6.825h-25.259v6.825H195.02z M224.529,13.652h-9.255v18.412
			c0,8.154,6.28,11.458,13.833,11.458c7.555,0,13.833-3.304,13.833-11.458V13.652h-9.253v17.639c0,3.305-1.984,4.765-4.58,4.765
			c-2.597,0-4.578-1.459-4.578-4.765V13.652z M158.439,28.244c0,9.313,7.223,15.064,16.665,15.064c3.823,0,7.034-0.901,8.969-1.802
			v-7.34c-1.841,0.902-3.966,1.675-7.317,1.675s-8.214-2.319-8.214-7.598c0-5.278,4.438-7.768,8.734-7.768
			c2.927,0,4.956,0.601,6.751,1.416v-7.253c-1.889-0.773-4.249-1.374-8.027-1.374C166.514,13.266,158.439,18.931,158.439,28.244"/>
	</g>
</g>
</svg>
