<svg xmlns="http://www.w3.org/2000/svg" viewBox="0 0 640 512"><!-- Font Awesome Pro 6.0.0-alpha2 by @fontawesome - https://fontawesome.com License - https://fontawesome.com/license (Commercial License) --><path d="M476 480H324C304.118 480 288 463.882 288 444V96H192V252C192 271.882 175.882 288 156 288H32C14.327 288 0 273.673 0 256V256C0 238.327 14.327 224 32 224H128V68C128 48.118 144.118 32 164 32H316C335.882 32 352 48.118 352 68V416H448V260C448 240.118 464.118 224 484 224H608C625.673 224 640 238.327 640 256V256C640 273.673 625.673 288 608 288H512V444C512 463.882 495.882 480 476 480Z"/></svg>